<?xml version="1.0" encoding="utf-8"?><svg viewBox="0 0 119.664 64" xmlns="http://www.w3.org/2000/svg" xmlns:xlink="http://www.w3.org/1999/xlink"><style>:root>svg{display:none}:root>svg:target{display:block}</style><svg viewBox="0 0 119.664 40" id="app-download-en" xmlns="http://www.w3.org/2000/svg"><path d="M110.135 0H9.535c-.367 0-.73 0-1.095.002-.306.002-.61.008-.919.013A13.215 13.215 0 0 0 5.517.19a6.665 6.665 0 0 0-1.9.627 6.438 6.438 0 0 0-1.62 1.18A6.258 6.258 0 0 0 .82 3.617 6.601 6.601 0 0 0 .195 5.52a12.993 12.993 0 0 0-.179 2.002c-.01.307-.01.615-.015.921V31.56c.005.31.006.61.015.921a12.992 12.992 0 0 0 .18 2.002 6.588 6.588 0 0 0 .624 1.905A6.208 6.208 0 0 0 1.998 38a6.274 6.274 0 0 0 1.618 1.179 6.7 6.7 0 0 0 1.901.63 13.455 13.455 0 0 0 2.004.177c.31.007.613.011.919.011.366.002.728.002 1.095.002h100.6c.36 0 .724 0 1.084-.002.304 0 .617-.004.922-.01a13.279 13.279 0 0 0 2-.178 6.804 6.804 0 0 0 1.908-.63A6.277 6.277 0 0 0 117.666 38a6.395 6.395 0 0 0 1.182-1.614 6.604 6.604 0 0 0 .619-1.905 13.506 13.506 0 0 0 .185-2.002c.004-.31.004-.61.004-.921.008-.364.008-.725.008-1.094V9.536c0-.366 0-.73-.008-1.092 0-.306 0-.614-.004-.92a13.507 13.507 0 0 0-.185-2.003 6.618 6.618 0 0 0-.62-1.903 6.466 6.466 0 0 0-2.798-2.8 6.768 6.768 0 0 0-1.908-.627 13.044 13.044 0 0 0-2-.176c-.305-.005-.618-.011-.922-.013-.36-.002-.725-.002-1.084-.002Z"/><path d="M8.445 39.125c-.305 0-.602-.004-.904-.01a12.687 12.687 0 0 1-1.87-.164 5.884 5.884 0 0 1-1.656-.548 5.406 5.406 0 0 1-1.397-1.016 5.32 5.32 0 0 1-1.02-1.397 5.722 5.722 0 0 1-.544-1.657 12.414 12.414 0 0 1-.166-1.875c-.007-.21-.015-.913-.015-.913v-23.1s.009-.692.015-.895a12.37 12.37 0 0 1 .165-1.872 5.755 5.755 0 0 1 .544-1.662 5.373 5.373 0 0 1 1.015-1.398 5.565 5.565 0 0 1 1.402-1.023 5.823 5.823 0 0 1 1.653-.544A12.586 12.586 0 0 1 7.543.887l.902-.012h102.769l.913.013a12.385 12.385 0 0 1 1.858.162 5.938 5.938 0 0 1 1.671.548 5.594 5.594 0 0 1 2.415 2.42 5.763 5.763 0 0 1 .535 1.649 12.995 12.995 0 0 1 .174 1.887c.003.283.003.588.003.89.008.375.008.732.008 1.092v20.929c0 .363 0 .718-.008 1.075 0 .325 0 .623-.004.93a12.731 12.731 0 0 1-.17 1.853 5.739 5.739 0 0 1-.54 1.67 5.48 5.48 0 0 1-1.016 1.386 5.413 5.413 0 0 1-1.4 1.022 5.862 5.862 0 0 1-1.668.55 12.542 12.542 0 0 1-1.869.163c-.293.007-.6.011-.897.011l-1.084.002Z"/><g data-name="&lt;Group&gt;"><g data-name="&lt;Group&gt;"><path data-name="&lt;Path&gt;" d="M24.769 20.3a4.949 4.949 0 0 1 2.356-4.151 5.066 5.066 0 0 0-3.99-2.158c-1.68-.176-3.308 1.005-4.164 1.005-.872 0-2.19-.988-3.608-.958a5.315 5.315 0 0 0-4.473 2.728c-1.934 3.348-.491 8.269 1.361 10.976.927 1.325 2.01 2.805 3.428 2.753 1.387-.058 1.905-.885 3.58-.885 1.658 0 2.144.885 3.59.852 1.489-.025 2.426-1.332 3.32-2.67a10.962 10.962 0 0 0 1.52-3.092 4.782 4.782 0 0 1-2.92-4.4Zm-2.732-8.09a4.872 4.872 0 0 0 1.115-3.49 4.957 4.957 0 0 0-3.208 1.66 4.636 4.636 0 0 0-1.144 3.36 4.1 4.1 0 0 0 3.237-1.53Z"/></g><path d="M42.302 27.14H37.57l-1.137 3.356h-2.005l4.484-12.418h2.083l4.483 12.418h-2.039Zm-4.243-1.55h3.752l-1.85-5.446h-.051Zm17.101.38c0 2.813-1.506 4.62-3.779 4.62a3.07 3.07 0 0 1-2.848-1.583h-.043v4.484h-1.86V21.442h1.8v1.506h.033a3.212 3.212 0 0 1 2.883-1.6c2.298 0 3.813 1.816 3.813 4.622Zm-1.91 0c0-1.833-.948-3.038-2.393-3.038-1.42 0-2.375 1.23-2.375 3.038 0 1.824.955 3.046 2.375 3.046 1.445 0 2.393-1.197 2.393-3.046Zm11.875 0c0 2.813-1.506 4.62-3.779 4.62a3.07 3.07 0 0 1-2.848-1.583h-.043v4.484h-1.859V21.442h1.799v1.506h.034a3.212 3.212 0 0 1 2.883-1.6c2.298 0 3.813 1.816 3.813 4.622Zm-1.91 0c0-1.833-.948-3.038-2.393-3.038-1.42 0-2.375 1.23-2.375 3.038 0 1.824.955 3.046 2.375 3.046 1.445 0 2.392-1.197 2.392-3.046Zm8.495 1.066c.138 1.232 1.334 2.04 2.97 2.04 1.566 0 2.693-.808 2.693-1.919 0-.964-.68-1.54-2.29-1.936l-1.609-.388c-2.28-.55-3.339-1.617-3.339-3.348 0-2.142 1.867-3.614 4.519-3.614 2.624 0 4.423 1.472 4.483 3.614h-1.876c-.112-1.239-1.136-1.987-2.634-1.987s-2.521.757-2.521 1.858c0 .878.654 1.395 2.255 1.79l1.368.336c2.548.603 3.606 1.626 3.606 3.443 0 2.323-1.85 3.778-4.793 3.778-2.754 0-4.614-1.42-4.734-3.667ZM83.346 19.3v2.142h1.722v1.472h-1.722v4.991c0 .776.345 1.137 1.102 1.137a5.808 5.808 0 0 0 .611-.043v1.463a5.104 5.104 0 0 1-1.032.086c-1.833 0-2.548-.689-2.548-2.445v-5.189h-1.316v-1.472h1.316V19.3Zm2.719 6.67c0-2.849 1.678-4.639 4.294-4.639 2.625 0 4.295 1.79 4.295 4.639 0 2.856-1.661 4.638-4.295 4.638-2.633 0-4.294-1.782-4.294-4.638Zm6.695 0c0-1.954-.895-3.108-2.401-3.108s-2.4 1.162-2.4 3.108c0 1.962.894 3.106 2.4 3.106s2.401-1.144 2.401-3.106Zm3.426-4.528h1.773v1.541h.043a2.16 2.16 0 0 1 2.177-1.635 2.866 2.866 0 0 1 .637.069v1.738a2.598 2.598 0 0 0-.835-.112 1.873 1.873 0 0 0-1.937 2.083v5.37h-1.858Zm13.198 6.395c-.25 1.643-1.85 2.771-3.898 2.771-2.634 0-4.269-1.764-4.269-4.595 0-2.84 1.644-4.682 4.19-4.682 2.506 0 4.08 1.72 4.08 4.466v.637h-6.394v.112a2.358 2.358 0 0 0 2.436 2.564 2.048 2.048 0 0 0 2.09-1.273Zm-6.282-2.702h4.526a2.177 2.177 0 0 0-2.22-2.298 2.292 2.292 0 0 0-2.306 2.298Z"/></g><path d="M37.826 8.731a2.64 2.64 0 0 1 2.808 2.965c0 1.906-1.03 3.002-2.808 3.002h-2.155V8.73Zm-1.228 5.123h1.125a1.876 1.876 0 0 0 1.967-2.146 1.881 1.881 0 0 0-1.967-2.134h-1.125Zm5.082-1.41a2.133 2.133 0 1 1 4.248 0 2.134 2.134 0 1 1-4.247 0Zm3.334 0c0-.976-.439-1.547-1.208-1.547-.773 0-1.207.571-1.207 1.547 0 .984.434 1.55 1.207 1.55.77 0 1.208-.57 1.208-1.55Zm6.559 2.254h-.922l-.93-3.317h-.07l-.927 3.317h-.913l-1.242-4.503h.902l.806 3.436h.067l.926-3.436h.852l.926 3.436h.07l.803-3.436h.889Zm2.281-4.503h.855v.715h.066a1.348 1.348 0 0 1 1.344-.802 1.465 1.465 0 0 1 1.559 1.675v2.915h-.889v-2.692c0-.724-.314-1.084-.972-1.084a1.033 1.033 0 0 0-1.075 1.141v2.635h-.888Zm5.24-1.758h.888v6.26h-.888Zm2.124 4.007a2.133 2.133 0 1 1 4.247 0 2.134 2.134 0 1 1-4.247 0Zm3.333 0c0-.976-.439-1.547-1.208-1.547-.773 0-1.207.571-1.207 1.547 0 .984.434 1.55 1.207 1.55.77 0 1.208-.57 1.208-1.55Zm1.849.98c0-.81.604-1.278 1.676-1.344l1.22-.07v-.389c0-.475-.315-.744-.922-.744-.497 0-.84.182-.939.5h-.86c.09-.773.818-1.27 1.84-1.27 1.128 0 1.765.563 1.765 1.514v3.077h-.855v-.633h-.07a1.515 1.515 0 0 1-1.353.707 1.36 1.36 0 0 1-1.501-1.348Zm2.895-.384v-.377l-1.1.07c-.62.042-.9.253-.9.65 0 .405.351.64.834.64a1.062 1.062 0 0 0 1.166-.983Zm2.053-.596c0-1.423.732-2.324 1.87-2.324a1.484 1.484 0 0 1 1.38.79h.067V8.437h.888v6.26h-.851v-.71h-.07a1.563 1.563 0 0 1-1.415.785c-1.145 0-1.869-.901-1.869-2.328Zm.918 0c0 .955.45 1.53 1.203 1.53.75 0 1.212-.583 1.212-1.526 0-.938-.468-1.53-1.212-1.53-.748 0-1.203.58-1.203 1.526Zm6.964 0a2.133 2.133 0 1 1 4.247 0 2.134 2.134 0 1 1-4.247 0Zm3.333 0c0-.976-.438-1.547-1.208-1.547-.772 0-1.207.571-1.207 1.547 0 .984.435 1.55 1.207 1.55.77 0 1.208-.57 1.208-1.55Zm2.107-2.249h.855v.715h.066a1.348 1.348 0 0 1 1.344-.802 1.465 1.465 0 0 1 1.559 1.675v2.915h-.889v-2.692c0-.724-.314-1.084-.972-1.084a1.033 1.033 0 0 0-1.075 1.141v2.635h-.889Zm8.845-1.121v1.141h.976v.749h-.976v2.315c0 .472.194.679.637.679a2.967 2.967 0 0 0 .339-.021v.74a2.916 2.916 0 0 1-.484.046c-.988 0-1.381-.348-1.381-1.216v-2.543h-.715v-.749h.715V9.074Zm2.19-.637h.88v2.481h.07a1.386 1.386 0 0 1 1.374-.806 1.483 1.483 0 0 1 1.55 1.679v2.907h-.889V12.01c0-.72-.335-1.084-.963-1.084a1.052 1.052 0 0 0-1.134 1.142v2.63h-.888Zm9.056 5.045a1.828 1.828 0 0 1-1.95 1.303 2.045 2.045 0 0 1-2.081-2.325 2.077 2.077 0 0 1 2.076-2.352c1.253 0 2.009.856 2.009 2.27v.31h-3.18v.05a1.19 1.19 0 0 0 1.2 1.29 1.08 1.08 0 0 0 1.07-.546Zm-3.126-1.451h2.275a1.086 1.086 0 0 0-1.109-1.167 1.152 1.152 0 0 0-1.166 1.167Z" data-name="&lt;Group&gt;"/></svg><svg version="1" viewBox="0 0 46.21 56.753" id="apple-logo" xmlns="http://www.w3.org/2000/svg"><path d="M38.593 30.15c.081 8.59 7.535 11.447 7.617 11.483-.062.202-1.19 4.073-3.927 8.072-2.365 3.457-4.82 6.901-8.688 6.973-3.799.07-5.021-2.253-9.365-2.253s-5.702 2.182-9.298 2.323c-3.733.142-6.576-3.739-8.961-7.184-4.875-7.046-8.598-19.91-3.597-28.593 2.484-4.313 6.925-7.043 11.743-7.114 3.666-.069 7.126 2.466 9.366 2.466 2.241 0 6.444-3.049 10.865-2.601 1.85.077 7.044.747 10.38 5.629-.269.168-6.197 3.62-6.135 10.799m-7.14-21.088c1.982-2.4 3.316-5.739 2.952-9.062-2.857.115-6.312 1.904-8.36 4.302-1.837 2.123-3.445 5.521-3.011 8.778 3.184.246 6.436-1.619 8.419-4.018"/></svg><svg viewBox="0 0 24 24" id="arrow-next" xmlns="http://www.w3.org/2000/svg"><path fill-rule="evenodd" clip-rule="evenodd" d="M14.793 6.793a1 1 0 0 1 1.414 0l4.5 4.5a1 1 0 0 1 0 1.414l-4.5 4.5a1 1 0 0 1-1.414-1.414L17.586 13H4a1 1 0 1 1 0-2h13.586l-2.793-2.793a1 1 0 0 1 0-1.414Z"/></svg><svg viewBox="0 0 24 24" id="arrow-prev" xmlns="http://www.w3.org/2000/svg"><path fill-rule="evenodd" clip-rule="evenodd" d="M9.207 17.207a1 1 0 0 1-1.414 0l-4.5-4.5a1 1 0 0 1 0-1.414l4.5-4.5a1 1 0 0 1 1.414 1.414L6.414 11H20a1 1 0 1 1 0 2H6.414l2.793 2.793a1 1 0 0 1 0 1.414Z"/></svg><svg viewBox="0 0 24 24" id="icon-appstore" xmlns="http://www.w3.org/2000/svg"><path d="m5.474 20.299-.602.942a1.54 1.54 0 0 1-2.093.555 1.51 1.51 0 0 1-.56-2.073l.381-.558c.147-.208.508-.568 1.23-.5 0 0 1.7.183 1.823 1.058 0 0 .017.288-.179.576zm16.994-6.128h-3.615c-.246-.016-.353-.103-.396-.154l-.002-.005L15 8.412c-.38-.576-.984.897-.984.897-.721 1.642.102 3.509.39 4.073l4.722 7.857a1.54 1.54 0 0 0 2.093.555 1.51 1.51 0 0 0 .56-2.073l-1.343-2.306c-.026-.056-.071-.208.204-.208h1.826c.846 0 1.532-.68 1.532-1.518s-.686-1.518-1.532-1.518zm-8.704 2.064s.193.972-.554.972H1.532c-.846 0-1.532-.68-1.532-1.518s.686-1.518 1.532-1.518h3.435c.555-.032.686-.349.686-.349l.003.002L10.14 6.13a.336.336 0 0 0 0-.312L8.66 3.277a1.51 1.51 0 0 1 .56-2.073 1.54 1.54 0 0 1 2.094.555L12 2.938l.685-1.177a1.54 1.54 0 0 1 2.093-.555 1.51 1.51 0 0 1 .561 2.073L9.1 13.986c-.027.065-.035.167.168.185h2.046s2.156.07 2.45 2.064z"/></svg><svg viewBox="0 0 256 256" id="icon-copyright" xmlns="http://www.w3.org/2000/svg"><path d="M128 24a104 104 0 1 0 104 104A104.11 104.11 0 0 0 128 24Zm0 192a88 88 0 1 1 88-88 88.1 88.1 0 0 1-88 88Zm-32-88a32 32 0 0 0 57.6 19.2 8 8 0 0 1 12.8 9.61 48 48 0 1 1 0-57.62 8 8 0 0 1-12.8 9.61A32 32 0 0 0 96 128Z"/></svg><svg viewBox="0 0 256 256" id="icon-email" xmlns="http://www.w3.org/2000/svg"><path d="M232 128v1.52c-.34 14.26-5.63 30.48-28 30.48-23.14 0-28-17.4-28-32V88a8 8 0 0 0-8.53-8 8.17 8.17 0 0 0-7.47 8.27v4a48 48 0 1 0 6.73 64.05 40.19 40.19 0 0 0 3.38 5C175.48 168 185.71 176 204 176a54.81 54.81 0 0 0 9.22-.75 4 4 0 0 1 4.09 6 104.05 104.05 0 0 1-91.4 50.75c-54.78-1.1-99.71-45.14-101.83-99.89A104 104 0 1 1 232 128Zm-136 0a32 32 0 1 0 32-32 32 32 0 0 0-32 32Z"/></svg><svg viewBox="0 0 16 16" id="icon-github" xmlns="http://www.w3.org/2000/svg"><path d="M7.5 1C3.91 1 1 3.906 1 7.488a6.497 6.497 0 0 0 4.445 6.16c.325.059.555-.273.555-.523 0-.152.004-.336 0-.875-1.809.39-2.375-.875-2.375-.875-.297-.75-.656-.965-.656-.965-.59-.402.043-.39.043-.39.652.043.988.605.988.605.5.875 1.629.79 2 .625 0-.398.043-.688.152-.871C4.11 10.019 2.996 8.839 3 7.207c.004-.965.336-1.715.875-2.27-.234-.296-.395-1.312.086-1.937 1.207 0 1.926.871 1.926.871s.566-.246 1.61-.246c1.046 0 1.608.234 1.608.234S9.828 3 11.035 3c.48.625.32 1.64.133 1.918.516.543.832 1.293.832 2.289 0 1.633-1.11 2.813-3.148 3.168.128.195.148.469.148.875v1.875c0 .25.227.586.559.523A6.497 6.497 0 0 0 14 7.488C14 3.906 11.09 1 7.5 1Z"/></svg><svg viewBox="0 0 64 64" id="icon-microsoft" xmlns="http://www.w3.org/2000/svg"><path class="icls-6" d="M34.41 2 39 12.5V49l-4.52 13 17.09-4.87A6.12 6.12 0 0 0 56 51.26V12.74a6.11 6.11 0 0 0-4.44-5.88Z"/><path class="icls-7" d="m12.74 48.61 5-2.7A4.36 4.36 0 0 0 20 42.08V22.43a4.37 4.37 0 0 1 2.87-4.1L39 12.5V8.07A6.32 6.32 0 0 0 34.41 2a6.18 6.18 0 0 0-1.73-.24 6.41 6.41 0 0 0-3.14.83L11.08 13.12A6.1 6.1 0 0 0 8 18.42v27.36a3.21 3.21 0 0 0 4.74 2.83Z"/><path class="icls-8" d="M39 49H19.93a3.22 3.22 0 0 0-1.59 6l11.36 6.44a6.2 6.2 0 0 0 3.07.81 6 6 0 0 0 1.71-.25A6.22 6.22 0 0 0 39 56Z"/><path class="icls-9" d="m12.74 48.61 5-2.7A4.36 4.36 0 0 0 20 42.08V22.43a4.37 4.37 0 0 1 2.87-4.1L39 12.5V8.07A6.32 6.32 0 0 0 34.41 2a6.18 6.18 0 0 0-1.73-.24 6.41 6.41 0 0 0-3.14.83L11.08 13.12A6.1 6.1 0 0 0 8 18.42v27.36a3.21 3.21 0 0 0 4.74 2.83Z"/><path class="icls-10" d="M39 49H19.93a3.22 3.22 0 0 0-1.59 6l11.36 6.44a6.2 6.2 0 0 0 3.07.81 6 6 0 0 0 1.71-.25A6.22 6.22 0 0 0 39 56Z"/></svg><svg viewBox="0 0 256 256" id="icon-phone" xmlns="http://www.w3.org/2000/svg"><path d="M144.27 45.93a8 8 0 0 1 9.8-5.66 86.22 86.22 0 0 1 61.66 61.66 8 8 0 0 1-5.66 9.8 8.23 8.23 0 0 1-2.07.27 8 8 0 0 1-7.73-5.93 70.35 70.35 0 0 0-50.33-50.34 8 8 0 0 1-5.67-9.8Zm-2.33 41.8c13.79 3.68 22.65 12.55 26.33 26.34A8 8 0 0 0 176 120a8.23 8.23 0 0 0 2.07-.27 8 8 0 0 0 5.66-9.8c-5.12-19.16-18.5-32.54-37.66-37.66a8 8 0 1 0-4.13 15.46Zm72.43 78.73-47.11-21.11-.13-.06a16 16 0 0 0-15.17 1.4 8.12 8.12 0 0 0-.75.56L126.87 168c-15.42-7.49-31.34-23.29-38.83-38.51l20.78-24.71c.2-.25.39-.5.57-.77a16 16 0 0 0 1.32-15.06v-.12L89.54 41.64a16 16 0 0 0-16.62-9.52A56.26 56.26 0 0 0 24 88c0 79.4 64.6 144 144 144a56.26 56.26 0 0 0 55.88-48.92 16 16 0 0 0-9.51-16.62Z"/></svg><svg viewBox="0 0 256 256" id="icon-pin" xmlns="http://www.w3.org/2000/svg"><path d="M128 16a88.1 88.1 0 0 0-88 88c0 75.3 80 132.17 83.41 134.55a8 8 0 0 0 9.18 0C136 236.17 216 179.3 216 104a88.1 88.1 0 0 0-88-88Zm0 56a32 32 0 1 1-32 32 32 32 0 0 1 32-32Z"/></svg><svg viewBox="0 0 256 256" id="icon-smiley" xmlns="http://www.w3.org/2000/svg"><path d="M128 24a104 104 0 1 0 104 104A104.11 104.11 0 0 0 128 24ZM92 96a12 12 0 1 1-12 12 12 12 0 0 1 12-12Zm82.92 60c-10.29 17.79-27.39 28-46.92 28s-36.63-10.2-46.92-28a8 8 0 1 1 13.84-8c7.47 12.91 19.21 20 33.08 20s25.61-7.1 33.08-20a8 8 0 1 1 13.84 8ZM164 120a12 12 0 1 1 12-12 12 12 0 0 1-12 12Z"/></svg></svg>