<svg width="200" height="145" fill="none" xmlns="http://www.w3.org/2000/svg"><path d="M88.462 15.263V99.21c-.013 12.141-4.88 23.78-13.533 32.365-8.652 8.584-20.385 13.412-32.621 13.425a7.724 7.724 0 01-5.44-2.235 7.602 7.602 0 01-2.253-5.397 7.6 7.6 0 012.253-5.396 7.724 7.724 0 015.44-2.235c8.16 0 15.986-3.216 21.757-8.941a30.404 30.404 0 009.012-21.586v-7.63H15.385a15.45 15.45 0 01-10.879-4.47A15.202 15.202 0 010 76.316V15.263A15.2 15.2 0 014.506 4.47 15.447 15.447 0 0115.385 0h57.692c4.08 0 7.993 1.608 10.879 4.47a15.202 15.202 0 014.505 10.793zM184.615 0h-57.692c-4.08 0-7.993 1.608-10.878 4.47a15.2 15.2 0 00-4.507 10.793v61.053a15.2 15.2 0 004.507 10.793 15.446 15.446 0 0010.878 4.47h57.692v7.632c0 8.096-3.241 15.86-9.012 21.585a30.891 30.891 0 01-21.757 8.941c-2.04 0-3.997.804-5.439 2.235a7.598 7.598 0 00-2.253 5.396 7.6 7.6 0 002.253 5.397 7.723 7.723 0 005.439 2.235c12.237-.013 23.969-4.841 32.622-13.425 8.653-8.585 13.519-20.224 13.532-32.364V15.263c0-4.048-1.621-7.93-4.506-10.793A15.446 15.446 0 00184.615 0z" fill="url(#paint0_linear_1373_3)"/><defs><linearGradient id="paint0_linear_1373_3" x1="100" y1="0" x2="100" y2="145" gradientUnits="userSpaceOnUse"><stop stop-color="#5847EB"/><stop offset=".9" stop-color="#5847EB" stop-opacity=".4"/></linearGradient></defs></svg>