<?xml version="1.0" encoding="UTF-8"?>
<svg xmlns="http://www.w3.org/2000/svg" width="258" height="32" viewBox="0 0 258 32" fill="none">
  <path d="M32.0814 25.1312C28.9886 29.2984 24.0322 32 18.4439 32C18.0703 32 17.7005 31.9835 17.3327 31.9598C20.3057 30.758 22.4042 27.846 22.4042 24.4421C22.4042 19.9645 18.7743 16.3347 14.2967 16.3347C13.5698 16.3347 12.8658 16.4318 12.1953 16.6113C14.3078 14.6221 17.1514 13.401 20.2818 13.401C26.7757 13.401 32.0428 18.6464 32.0811 25.1312H32.0814ZM35.4172 15.0265C35.4172 15.6569 35.3802 16.2784 35.3132 16.8911C32.3515 13.1487 27.7728 10.7447 22.6296 10.7447C19.1716 10.7447 15.9697 11.8338 13.3411 13.6824C10.1321 15.5566 9.03568 19.4605 4.66663 19.8655C4.54192 19.8889 2.62272 19.8655 2.62272 19.8655C1.46477 19.8655 0.527845 18.9192 0.542904 17.7578C0.557805 16.6147 1.51058 15.7056 2.65378 15.7056H5.60874C5.60874 15.7053 6.02442 14.5406 6.77845 12.8429C7.16433 11.9236 7.62064 11.0407 8.13906 10.1985C10.5415 6.12151 13.5853 1.09317 21.4054 0C21.4054 0 21.3774 0.252703 21.3523 0.665248C22.3836 0.552151 23.1927 0.56517 23.2108 0.56517C26.9059 0.575366 30.3672 2.40154 32.4562 5.44951C34.3241 8.17482 35.4172 11.4724 35.4172 15.0262V15.0265ZM14.3723 9.68837C14.3723 8.88226 13.7186 8.22862 12.9123 8.22862C12.1061 8.22862 11.4524 8.88226 11.4524 9.68837C11.4524 10.4945 12.1061 11.1483 12.9123 11.1483C13.7186 11.1483 14.3723 10.4948 14.3723 9.68837ZM21.1374 2.96875C20.1906 2.96875 19.3843 3.56985 19.079 4.41125C19.4781 4.2067 19.93 4.09047 20.4094 4.09047C21.671 4.09047 22.7458 4.89046 23.1543 6.01076C23.2652 5.74865 23.3267 5.4605 23.3267 5.15791C23.3267 3.94882 22.3466 2.96875 21.1375 2.96875H21.1374ZM9.6407 1.98539C5.75587 4.23462 2.84045 7.96965 1.67105 12.4135C1.97928 10.4184 2.64045 8.54188 3.58021 6.84072C3.57974 6.8404 3.57942 6.83978 3.57895 6.8393C3.50319 6.78127 3.43025 6.7179 3.36107 6.64872C2.50727 5.79492 2.50727 4.41062 3.36107 3.55683C4.12577 2.79213 5.31587 2.71229 6.16936 3.3173C7.09688 2.34617 8.1342 1.48061 9.26815 0.750268C9.38062 1.14854 9.50501 1.55967 9.6407 1.98539Z" fill="#FFFFFF"></path>
  <path d="M119.89 11.004C119.299 10.14 118.526 9.46892 117.571 8.99144C116.616 8.51395 115.501 8.27505 114.228 8.27505C112.636 8.27505 111.214 8.65622 109.964 9.41778C108.713 10.18 107.724 11.2256 106.996 12.5561C106.268 13.8864 105.905 15.4045 105.905 17.1099C105.905 18.8153 106.268 20.3394 106.996 21.681C107.724 23.023 108.713 24.0804 109.964 24.8532C111.214 25.6261 112.636 26.0129 114.228 26.0129C115.661 26.0129 116.826 25.7284 117.724 25.1602C118.622 24.5921 119.344 23.9323 119.89 23.1819L120.368 25.6037H124.257V4.49046H119.891V11.0041L119.89 11.004ZM118.611 20.7767C117.713 21.7206 116.559 22.1922 115.149 22.1922C113.761 22.1922 112.613 21.7148 111.704 20.7596C110.794 19.8045 110.339 18.5884 110.339 17.1096C110.339 15.6309 110.794 14.4267 111.704 13.494C112.613 12.5618 113.761 12.0954 115.149 12.0954C116.559 12.0954 117.713 12.5677 118.611 13.5111C119.509 14.4549 119.959 15.6659 119.959 17.144C119.959 18.6221 119.509 19.8334 118.611 20.7769V20.7767ZM92.0003 8.18752C90.6582 8.18752 89.4932 8.48336 88.5039 9.07442C87.5147 9.6661 86.7583 10.462 86.2355 11.4622L85.8943 8.59693H82.0398V25.5161H86.406V16.7837C86.406 15.2375 86.7983 14.0325 87.5828 13.168C88.3674 12.304 89.3737 11.8719 90.6017 11.8719C91.8522 11.8719 92.7731 12.2587 93.3647 13.0316C93.9557 13.8049 94.2516 14.9194 94.2516 16.3746V25.5163H98.6176V15.965C98.6176 13.4185 98.0379 11.4852 96.878 10.1662C95.7182 8.84759 94.0923 8.18752 92.0003 8.18752ZM75.7259 10.9166C75.1343 10.0526 74.3614 9.38155 73.4064 8.90406C72.4513 8.42658 71.3368 8.18768 70.0634 8.18768C68.4714 8.18768 67.0499 8.56885 65.7994 9.33041C64.5485 10.0926 63.5593 11.1382 62.8318 12.4687C62.1036 13.7991 61.7402 15.3172 61.7402 17.0226C61.7402 18.728 62.1036 20.252 62.8318 21.5937C63.5593 22.9356 64.5485 23.993 65.7994 24.7659C67.0499 25.5387 68.4713 25.9255 70.0634 25.9255C71.4962 25.9255 72.6612 25.641 73.5598 25.0728C74.4579 24.5047 75.1801 23.8449 75.7259 23.0945L75.9987 25.5163H80.092V8.59709H75.9645L75.7259 10.9166ZM74.4467 20.6894C73.5481 21.6332 72.3942 22.1049 70.9845 22.1049C69.5971 22.1049 68.4485 21.6274 67.5392 20.6723C66.6294 19.7171 66.1747 18.501 66.1747 17.0223C66.1747 15.5435 66.6294 14.3393 67.5392 13.4066C68.4485 12.4744 69.5971 12.008 70.9845 12.008C72.3942 12.008 73.5481 12.4803 74.4467 13.4237C75.3449 14.3675 75.7942 15.5785 75.7942 17.0566C75.7942 18.5347 75.3449 19.746 74.4467 20.6895V20.6894ZM60.0715 4.49015L54.2808 21.0475L48.5193 4.49015H43.8966L51.5861 25.516H56.9415L64.631 4.49015H60.0715ZM176.825 4.49015L171.035 21.0475L165.273 4.49015H160.65L168.34 25.516H173.695L181.385 4.49015H176.826H176.825ZM216.743 10.9164C216.152 10.0524 215.379 9.38139 214.424 8.90391C213.469 8.42642 212.354 8.18752 211.081 8.18752C209.489 8.18752 208.068 8.56869 206.817 9.33026C205.566 10.0924 204.577 11.1381 203.849 12.4686C203.121 13.7989 202.757 15.317 202.757 17.0224C202.757 18.7278 203.121 20.2519 203.849 21.5935C204.577 22.9355 205.566 23.9929 206.817 24.7657C208.068 25.5386 209.489 25.9254 211.081 25.9254C212.514 25.9254 213.679 25.6408 214.577 25.0727C215.475 24.5045 216.197 23.8448 216.743 23.0944L217.221 25.5161H221.11V4.4903H216.744V10.9166L216.743 10.9164ZM215.464 20.6892C214.566 21.633 213.412 22.1047 212.002 22.1047C210.615 22.1047 209.466 21.6272 208.557 20.6721C207.647 19.717 207.192 18.5008 207.192 17.0221C207.192 15.5434 207.647 14.3391 208.557 13.4065C209.466 12.4742 210.615 12.0079 212.002 12.0079C213.412 12.0079 214.566 12.4802 215.464 13.4235C216.362 14.3674 216.811 15.5784 216.811 17.0565C216.811 18.5346 216.362 19.7457 215.464 20.6892ZM235.506 9.27896C234.232 8.55144 232.765 8.18737 231.106 8.18737C229.332 8.18737 227.791 8.56854 226.484 9.3301C225.176 10.0923 224.152 11.155 223.413 12.5194C222.674 13.8841 222.305 15.4419 222.305 17.1928C222.305 18.9212 222.68 20.4451 223.43 21.7637C224.181 23.0827 225.215 24.1061 226.534 24.8336C227.853 25.5612 229.366 25.9251 231.071 25.9251C232.436 25.9251 233.658 25.6747 234.738 25.1746C235.818 24.6747 236.728 23.9867 237.467 23.111C238.206 22.2359 238.734 21.2638 239.053 20.1946H234.619C234.323 20.8315 233.874 21.349 233.271 21.7466C232.669 22.1447 231.924 22.3436 231.037 22.3436C229.854 22.3436 228.848 21.9684 228.018 21.218C227.188 20.4676 226.727 19.4327 226.637 18.1137H239.497C239.519 17.8185 239.536 17.5338 239.548 17.261C239.559 16.9881 239.565 16.7269 239.565 16.4764C239.565 14.9302 239.207 13.5258 238.49 12.2636C237.774 11.0015 236.779 10.007 235.506 9.27896H235.506ZM226.705 15.3849C226.932 14.1569 227.456 13.2416 228.274 12.6388C229.093 12.0366 230.036 11.7349 231.106 11.7349C232.219 11.7349 233.152 12.0648 233.902 12.7241C234.653 13.3839 235.062 14.2708 235.131 15.3849H226.705ZM255.538 10.1659C254.378 8.84728 252.751 8.18721 250.66 8.18721C249.317 8.18721 248.153 8.48305 247.163 9.0741C246.174 9.66578 245.418 10.4617 244.895 11.4618L244.554 8.59662H240.699V25.5158H245.065V16.7834C245.065 15.2372 245.458 14.0322 246.242 13.1677C247.027 12.3037 248.033 11.8716 249.261 11.8716C250.512 11.8716 251.433 12.2584 252.024 13.0312C252.615 13.8046 252.911 14.9191 252.911 16.3743V25.516H257.277V15.9647C257.277 13.4182 256.698 11.4849 255.538 10.1659ZM197.126 25.5158H201.493V4.48999H197.126V25.5158ZM148.16 11.769L147.751 8.59677H143.862V25.516H148.228V17.8069C148.228 16.5107 148.438 15.4991 148.86 14.7708C149.28 14.0433 149.866 13.5318 150.616 13.2359C151.367 12.9406 152.219 12.7925 153.174 12.7925H154.403V8.18737C152.97 8.18737 151.725 8.51144 150.667 9.15959C149.61 9.80774 148.774 10.6775 148.16 11.769ZM138.705 9.27896C137.431 8.55144 135.964 8.18737 134.304 8.18737C132.53 8.18737 130.99 8.56854 129.682 9.3301C128.374 10.0923 127.351 11.155 126.612 12.5194C125.873 13.8841 125.504 15.4419 125.504 17.1928C125.504 18.9212 125.879 20.4451 126.629 21.7637C127.38 23.0827 128.414 24.1061 129.733 24.8336C131.052 25.5612 132.564 25.9251 134.27 25.9251C135.635 25.9251 136.857 25.6747 137.937 25.1746C139.017 24.6747 139.927 23.9867 140.666 23.111C141.405 22.2359 141.933 21.2638 142.252 20.1946H137.818C137.522 20.8315 137.073 21.349 136.47 21.7466C135.867 22.1447 135.123 22.3436 134.236 22.3436C133.054 22.3436 132.047 21.9684 131.217 21.218C130.387 20.4676 129.926 19.4327 129.836 18.1137H142.695C142.718 17.8185 142.735 17.5338 142.747 17.261C142.758 16.9881 142.764 16.7269 142.764 16.4764C142.764 14.9302 142.406 13.5258 141.689 12.2636C140.973 11.0015 139.978 10.007 138.705 9.27896ZM129.904 15.3849C130.131 14.1569 130.654 13.2416 131.473 12.6388C132.292 12.0366 133.235 11.7349 134.304 11.7349C135.418 11.7349 136.351 12.0648 137.102 12.7241C137.852 13.3839 138.261 14.2708 138.329 15.3849H129.904ZM191.825 9.27896C190.551 8.55144 189.085 8.18737 187.425 8.18737C185.651 8.18737 184.11 8.56854 182.803 9.3301C181.495 10.0923 180.471 11.155 179.733 12.5194C178.994 13.8841 178.624 15.4419 178.624 17.1928C178.624 18.9212 178.999 20.4451 179.75 21.7637C180.5 23.0827 181.534 24.1061 182.854 24.8336C184.173 25.5612 185.685 25.9251 187.391 25.9251C188.755 25.9251 189.977 25.6747 191.058 25.1746C192.137 24.6747 193.047 23.9867 193.787 23.111C194.525 22.2359 195.054 21.2638 195.373 20.1946H190.938C190.642 20.8315 190.193 21.349 189.591 21.7466C188.988 22.1447 188.244 22.3436 187.357 22.3436C186.174 22.3436 185.168 21.9684 184.338 21.218C183.507 20.4676 183.047 19.4327 182.956 18.1137H195.816C195.839 17.8185 195.856 17.5338 195.867 17.261C195.878 16.9881 195.884 16.7269 195.884 16.4764C195.884 14.9302 195.526 13.5258 194.81 12.2636C194.093 11.0015 193.098 10.007 191.825 9.27896ZM183.024 15.3849C183.251 14.1569 183.775 13.2416 184.594 12.6388C185.412 12.0366 186.356 11.7349 187.425 11.7349C188.539 11.7349 189.472 12.0648 190.222 12.7241C190.973 13.3839 191.382 14.2708 191.45 15.3849H183.024Z" fill="#FFFFFF"></path>
</svg>
