<?xml version="1.0" encoding="UTF-8"?>
<svg width="174px" height="31px" viewBox="0 0 174 31" version="1.1" xmlns="http://www.w3.org/2000/svg" xmlns:xlink="http://www.w3.org/1999/xlink">
    <!-- Generator: Sketch 52.6 (67491) - http://www.bohemiancoding.com/sketch -->
    <title>notch</title>
    <desc>Created with Sketch.</desc>
    <defs>
        <rect id="path-1" x="0" y="0" width="390" height="31"></rect>
    </defs>
    <g id="iPhone-13-Pro---Mockups" stroke="none" stroke-width="1" fill="none" fill-rule="evenodd">
        <g id="notch" transform="translate(-108.000000, 0.000000)">
            <mask id="mask-2" fill="white">
                <use xlink:href="#path-1"></use>
            </mask>
            <use fill-opacity="0" fill="#D8D8D8" xlink:href="#path-1"></use>
            <path d="M108.398465,-1.42395085e-15 L282.219949,1.43411916e-15 C281.07545,0 280.220988,0.231962138 279.499053,0.667538543 C278.777117,1.10311495 278.210538,1.74230562 277.824443,2.55676268 C277.438348,3.37121975 277.232737,3.70289981 277.232737,4.99776252 C277.232737,10.9869668 276.167972,15.4684144 274.168567,19.2121217 C272.169162,22.9558289 269.235117,25.8939122 265.496555,27.8960687 C261.757993,29.8982253 257.577299,30.964455 250.185516,30.964455 L140.811927,30.964455 C133.420143,30.964455 129.23945,29.8982253 125.500888,27.8960687 C121.762325,25.8939122 118.82828,22.9558289 116.828875,19.2121217 C114.82947,15.4684144 113.764706,11.0090256 113.762014,4.99622204 C113.762014,3.70637876 113.540887,3.36774002 113.125657,2.55412363 C112.710427,1.74050723 112.101094,1.10197633 111.324681,0.666849518 C110.548268,0.23172271 109.629329,-4.11657687e-13 108.398465,0 Z M390,56.4054744 L390,786.594526 L390,56.4054744 Z M333.594526,843 L56.4054744,843 L333.594526,843 Z M4.53228118e-13,786.594526 L4.56266583e-13,56.4054744 L4.11144548e-15,786.594526 Z" id="Screen-Rounded" fill="#121212" mask="url(#mask-2)"></path>
        </g>
    </g>
</svg>