<svg width="40" height="40" viewBox="0 0 40 40" fill="none" xmlns="http://www.w3.org/2000/svg">
<path d="M20 30C20 35.5228 24.4772 40 30 40C35.5228 40 40 35.5228 40 30C40 24.4772 35.5228 20 30 20H20V30Z" fill="#5847EB"/>
<path d="M20 10C20 4.47715 15.5228 0 10 0C4.47715 0 0 4.47715 0 10C0 15.5228 4.47715 20 10 20H20V10Z" fill="#5847EB"/>
<path d="M30 20C35.5228 20 40 15.5228 40 10C40 4.47715 35.5228 0 30 0C24.4772 0 20 4.47715 20 10V20H30Z" fill="url(#paint0_linear_1330_3)"/>
<path d="M30 20C35.5228 20 40 15.5228 40 10C40 4.47715 35.5228 0 30 0C24.4772 0 20 4.47715 20 10V20H30Z" fill="black" fill-opacity="0.2"/>
<path d="M10 20C4.47715 20 6.78525e-07 24.4772 4.37114e-07 30C1.95703e-07 35.5228 4.47715 40 10 40C15.5228 40 20 35.5228 20 30L20 20L10 20Z" fill="url(#paint1_linear_1330_3)"/>
<path d="M10 20C4.47715 20 6.78525e-07 24.4772 4.37114e-07 30C1.95703e-07 35.5228 4.47715 40 10 40C15.5228 40 20 35.5228 20 30L20 20L10 20Z" fill="black" fill-opacity="0.2"/>
<defs>
<linearGradient id="paint0_linear_1330_3" x1="35.9375" y1="3.75" x2="23.125" y2="17.8125" gradientUnits="userSpaceOnUse">
<stop stop-color="#5847EB" stop-opacity="0.4"/>
<stop offset="1" stop-color="#0F145D"/>
</linearGradient>
<linearGradient id="paint1_linear_1330_3" x1="4.0625" y1="36.25" x2="16.875" y2="22.1875" gradientUnits="userSpaceOnUse">
<stop stop-color="#5847EB" stop-opacity="0.4"/>
<stop offset="1" stop-color="#0F145D"/>
</linearGradient>
</defs>
</svg>
