<svg version="1.0" xmlns="http://www.w3.org/2000/svg" width="520.000000pt" height="520.000000pt" viewBox="0 0 520.000000 520.000000" preserveAspectRatio="xMidYMid meet">
  <g transform="translate(0.000000,520.000000) scale(0.100000,-0.100000)" fill="#FFFEFE" stroke="none">
    <path d="M2429 5196 c-2 -2 -38 -6 -79 -10 -317 -26 -648 -122 -945 -275 -49
-25 -96 -52 -103 -58 -7 -7 -19 -13 -27 -13 -7 0 -16 -7 -19 -16 -3 -8 -10
-12 -16 -9 -5 3 -10 2 -10 -3 0 -5 -12 -15 -27 -23 -85 -43 -285 -200 -410
-320 -84 -81 -253 -271 -253 -285 0 -3 -6 -12 -14 -19 -30 -31 -186 -276 -239
-375 -117 -223 -217 -524 -251 -755 -4 -23 -8 -51 -11 -63 -20 -104 -27 -470
-13 -627 39 -412 185 -823 416 -1169 52 -77 97 -143 101 -146 3 -3 19 -23 35
-45 84 -114 338 -375 366 -375 4 0 10 -4 12 -9 7 -18 308 -231 327 -231 6 0
11 -3 11 -7 0 -5 10 -13 23 -19 12 -5 60 -31 107 -56 47 -26 126 -63 175 -83
50 -20 99 -40 110 -44 107 -46 392 -118 530 -135 307 -38 667 -26 913 29 34 8
74 17 90 20 53 9 258 78 367 122 115 48 280 129 303 150 7 7 19 13 27 13 7 0
16 7 19 16 4 9 9 14 12 11 4 -3 11 -2 18 4 6 5 61 44 121 86 253 175 459 381
625 623 25 36 48 67 51 70 3 3 33 52 67 110 34 58 65 110 70 115 4 6 9 12 9
15 1 3 17 39 36 80 55 118 115 272 132 340 2 8 13 47 23 85 29 103 51 210 68
325 13 94 19 199 19 360 0 209 -7 297 -35 455 -17 92 -31 150 -74 315 -7 24
-84 237 -94 257 -89 185 -198 380 -242 430 -5 7 -10 15 -10 18 0 4 -6 12 -12
20 -7 7 -22 25 -33 41 -113 157 -171 222 -397 437 -10 9 -22 17 -27 17 -5 0
-11 4 -13 8 -9 21 -238 182 -368 258 -294 173 -622 281 -995 329 -54 7 -460
16 -466 11z m481 -85 c41 -6 91 -13 110 -16 20 -3 47 -8 60 -11 14 -3 36 -7
50 -10 63 -13 190 -47 244 -66 32 -11 63 -21 70 -23 6 -1 24 -7 39 -13 16 -7
30 -12 31 -12 2 0 30 -12 62 -27 33 -15 61 -27 64 -28 3 -1 23 -10 45 -20 22
-10 43 -18 48 -17 4 1 7 -3 7 -8 0 -6 4 -10 9 -10 5 0 44 -20 85 -45 42 -25
81 -45 85 -45 5 0 11 -3 13 -8 2 -4 27 -23 56 -41 53 -33 167 -118 247 -183
45 -37 227 -217 266 -263 31 -38 123 -157 131 -170 3 -5 -5 -11 -18 -11 -31
-2 -127 -70 -259 -182 -11 -9 -40 -33 -65 -52 -24 -19 -52 -42 -62 -50 -44
-40 -346 -333 -401 -389 -34 -36 -102 -106 -152 -157 -118 -121 -169 -176
-230 -249 -27 -33 -67 -78 -87 -100 -20 -22 -69 -78 -108 -125 -40 -47 -87
-102 -106 -123 -19 -21 -34 -41 -34 -45 0 -4 -25 -33 -54 -64 -42 -44 -67 -61
-106 -72 -29 -9 -55 -15 -58 -15 -4 1 -9 0 -12 -1 -9 -3 -43 -9 -90 -15 -93
-11 -116 -15 -136 -20 -11 -2 -40 -7 -65 -10 -24 -3 -55 -8 -69 -11 -14 -3
-38 -7 -55 -9 -16 -1 -55 -6 -85 -11 -63 -9 -100 -8 -112 4 -13 13 -18 52 -7
52 5 0 8 3 7 7 -4 12 115 194 162 251 6 7 59 83 117 170 59 86 116 169 127
183 12 14 28 36 36 49 8 12 53 71 100 129 47 59 99 124 115 145 17 21 44 53
60 71 17 18 50 57 75 86 25 29 68 77 95 107 28 30 53 60 57 67 4 7 63 63 130
125 68 62 137 125 154 141 17 16 34 29 37 29 3 0 17 10 29 23 13 12 39 33 57
47 46 33 81 69 81 81 0 37 -78 9 -175 -63 -27 -21 -54 -38 -58 -38 -5 0 -21
-8 -35 -19 -39 -27 -160 -87 -212 -105 -127 -44 -223 -51 -330 -26 -74 17
-268 110 -278 133 -2 4 -8 7 -13 7 -8 0 -78 42 -104 63 -22 18 -175 105 -175
100 0 -4 -9 2 -20 12 -11 10 -20 15 -20 10 0 -4 -6 -2 -14 4 -20 17 -151 60
-205 67 -102 14 -214 6 -311 -23 -30 -9 -58 -16 -62 -15 -5 1 -8 -3 -8 -9 0
-5 -4 -8 -9 -5 -5 4 -30 -3 -55 -14 -26 -11 -50 -20 -54 -21 -16 -4 -57 -24
-62 -31 -3 -4 -15 -9 -25 -11 -11 -2 -35 -11 -52 -20 -18 -10 -36 -17 -39 -16
-4 0 -10 -3 -13 -8 -3 -4 -33 -26 -66 -47 -71 -46 -181 -131 -213 -164 -12
-13 -22 -21 -22 -18 0 3 -10 -5 -23 -17 -13 -12 -36 -34 -52 -48 -49 -43 -195
-226 -195 -244 0 -4 -9 -20 -20 -36 -26 -35 -59 -129 -67 -189 -8 -57 -8 -201
0 -260 7 -48 62 -170 78 -170 5 0 8 -4 7 -8 -5 -13 84 -90 132 -114 25 -13 48
-27 52 -33 4 -5 8 -7 8 -3 0 4 12 3 26 -3 26 -9 42 -12 139 -25 150 -19 330
13 498 89 37 16 67 34 67 39 0 5 5 6 10 3 6 -3 10 -3 10 2 0 4 23 21 50 38 28
16 50 33 50 38 0 4 4 6 8 3 13 -8 190 179 246 259 60 84 146 249 151 286 2 18
-2 30 -12 33 -17 7 -30 -7 -59 -63 -11 -20 -22 -40 -26 -46 -149 -204 -197
-252 -443 -441 -30 -23 -214 -114 -231 -114 -7 0 -14 -4 -14 -8 0 -5 -6 -9
-12 -10 -7 0 -43 -10 -81 -21 -95 -28 -174 -41 -192 -32 -5 3 -23 5 -40 6 -16
0 -36 4 -43 9 -7 4 -16 6 -18 3 -7 -6 -93 39 -160 83 -61 39 -96 88 -125 171
-23 67 -30 174 -15 239 4 19 9 42 11 50 2 8 4 16 5 18 3 3 5 11 14 55 5 20 13
37 18 37 6 0 8 7 4 15 -3 8 -2 15 3 15 4 0 8 6 8 13 0 6 14 36 32 65 17 29 31
57 31 62 0 4 3 10 8 12 4 2 23 23 43 48 50 63 106 118 164 165 28 22 52 43 55
46 13 15 103 71 156 97 66 33 220 87 274 96 79 13 137 19 175 18 77 -2 169
-13 175 -20 3 -4 16 -9 30 -10 61 -9 220 -90 301 -154 20 -15 39 -28 42 -28 3
0 40 -23 81 -50 42 -28 80 -50 86 -50 5 0 10 -4 10 -10 0 -5 3 -9 8 -8 4 0 14
-1 22 -5 136 -52 333 -57 480 -11 136 43 155 13 49 -77 -29 -24 -61 -52 -70
-61 -10 -9 -20 -14 -23 -10 -3 3 -6 -1 -6 -9 -1 -8 -26 -34 -56 -59 -62 -50
-314 -305 -444 -450 -47 -52 -104 -113 -126 -137 -23 -24 -40 -43 -37 -43 2 0
-7 -11 -19 -25 -33 -36 -47 -53 -98 -115 -25 -30 -47 -57 -50 -60 -4 -3 -31
-36 -62 -75 -30 -38 -64 -80 -74 -92 -11 -12 -35 -44 -54 -72 -19 -28 -38 -50
-42 -51 -5 0 -8 -6 -8 -13 0 -15 -78 -97 -94 -98 -6 0 -18 -2 -26 -4 -38 -10
-106 -27 -120 -30 -8 -2 -28 -8 -45 -15 -16 -6 -31 -11 -33 -11 -5 2 -57 -12
-67 -18 -5 -3 -12 -6 -15 -6 -3 -1 -22 -9 -44 -18 -21 -9 -41 -17 -43 -17 -3
0 -19 -6 -36 -14 -18 -8 -65 -28 -105 -45 -41 -17 -86 -39 -100 -49 -15 -10
-45 -27 -67 -37 -65 -29 -175 -96 -250 -151 -114 -83 -148 -126 -111 -140 12
-5 58 17 76 36 21 21 100 80 109 80 6 0 11 4 11 8 0 4 15 16 33 27 17 10 34
22 37 25 5 7 323 165 365 182 56 22 80 31 85 32 3 1 10 4 15 8 8 5 62 22 108
34 4 1 9 3 12 4 3 1 10 4 15 5 6 1 13 4 18 5 4 1 10 2 15 1 4 0 7 3 7 7 0 15
45 7 58 -10 17 -23 11 -47 -20 -88 -26 -33 -139 -187 -176 -239 -9 -14 -25
-32 -34 -40 -10 -9 -18 -20 -18 -25 0 -4 -15 -25 -32 -45 -18 -20 -46 -54 -63
-75 -50 -65 -118 -149 -150 -186 -58 -67 -220 -227 -260 -256 -22 -16 -44 -34
-50 -41 -10 -11 -120 -94 -165 -123 -58 -39 -72 -53 -66 -73 3 -11 2 -16 -3
-11 -71 86 -172 234 -247 364 -49 84 -124 241 -124 259 0 5 -3 11 -8 13 -8 3
-80 205 -88 247 -3 14 -7 28 -10 33 -3 4 -7 16 -9 26 -1 9 -8 35 -13 57 -13
46 -21 85 -27 135 -3 19 -7 42 -10 50 -4 15 -7 36 -24 190 -14 114 -5 469 14
560 2 14 7 48 11 75 9 74 51 250 80 335 14 41 27 82 29 90 3 14 43 115 67 170
6 14 12 27 12 30 4 16 97 189 143 265 56 91 174 257 235 329 46 55 236 244
284 283 99 82 126 103 133 103 3 0 17 10 31 23 53 48 386 243 430 252 3 1 31
13 63 28 32 15 63 27 70 27 7 0 17 4 23 9 5 5 50 21 99 36 50 15 101 31 115
35 30 11 200 48 254 56 21 3 48 7 59 10 11 2 57 6 101 10 45 3 82 8 84 9 9 8
406 -4 472 -14z m1855 -1216 c26 -43 65 -113 86 -155 l38 -75 -24 -21 c-13
-12 -22 -24 -19 -26 2 -3 -22 -32 -54 -66 -32 -34 -58 -62 -56 -62 23 0 -350
-366 -448 -440 -11 -8 -46 -37 -77 -63 -75 -64 -81 -69 -81 -62 0 6 -18 -7
-56 -42 -13 -12 -24 -20 -24 -17 0 3 -6 0 -12 -6 -107 -90 -403 -260 -452
-260 -9 0 -16 -4 -16 -9 0 -8 -26 -18 -76 -27 -26 -5 -48 19 -40 43 3 10 17
31 31 47 14 16 25 32 25 35 0 4 20 28 44 55 25 26 53 59 63 73 10 13 27 35 38
47 50 57 74 85 120 146 43 55 228 275 245 290 3 3 18 21 34 40 26 33 110 125
266 295 35 38 131 136 212 216 81 80 148 151 148 159 0 17 27 -20 85 -115z
m216 -460 c15 -44 30 -89 32 -100 2 -11 7 -27 10 -35 3 -8 9 -28 13 -45 4 -16
8 -34 10 -40 2 -5 6 -23 9 -40 3 -16 8 -38 11 -47 6 -19 9 -35 19 -103 5 -27
9 -57 11 -65 25 -151 24 -557 -1 -699 -1 -9 -6 -34 -10 -56 -4 -22 -8 -52 -10
-66 -15 -117 -118 -446 -165 -531 -6 -10 -10 -25 -10 -33 0 -8 -5 -15 -10 -15
-6 0 -9 -3 -8 -7 4 -16 -84 -179 -160 -297 -48 -74 -171 -243 -209 -286 -41
-47 -228 -235 -263 -265 -128 -111 -482 -345 -541 -357 -8 -2 -16 -5 -19 -8
-6 -6 -180 -82 -225 -98 -16 -5 -39 -14 -50 -18 -11 -4 -24 -6 -29 -5 -4 1
-14 -4 -22 -10 -8 -6 -14 -8 -14 -5 0 4 -8 2 -18 -3 -41 -22 -251 -68 -389
-86 -259 -34 -584 -26 -801 20 -37 7 -79 16 -92 18 -37 7 -153 37 -170 44 -8
3 -22 7 -31 9 -9 2 -52 17 -95 34 -43 16 -84 30 -91 30 -7 0 -13 4 -13 10 0 5
-3 9 -8 8 -24 -5 -241 107 -387 200 -66 42 -224 157 -290 212 -65 54 -255 250
-254 262 0 9 2 9 5 1 3 -7 14 -9 32 -4 30 9 177 86 263 137 31 19 60 34 63 34
4 0 12 5 19 10 7 6 53 40 102 77 50 37 95 72 101 77 6 6 35 31 64 56 30 25 78
66 108 93 31 26 59 47 64 47 4 0 8 4 8 9 0 5 17 26 38 47 20 22 48 53 62 70
14 17 57 65 95 107 76 82 79 85 145 172 25 33 48 64 53 70 38 51 84 115 137
195 86 128 101 140 190 153 8 2 21 6 27 10 8 5 13 3 13 -3 0 -6 5 -8 12 -3 7
4 22 8 33 10 11 1 38 4 60 7 22 4 56 8 75 11 46 5 82 13 87 19 3 3 16 1 29 -4
16 -6 24 -6 24 1 0 6 4 8 8 5 4 -3 26 -1 48 4 101 23 207 31 221 17 12 -13 10
-52 -6 -79 -9 -14 -35 -54 -58 -88 -24 -34 -43 -66 -43 -71 0 -5 -4 -9 -8 -9
-5 0 -15 -12 -23 -27 -7 -16 -29 -53 -48 -83 -39 -62 -151 -285 -180 -357 -16
-41 -50 -155 -68 -226 -3 -12 -6 -69 -8 -126 -3 -172 39 -302 130 -393 85 -87
205 -125 380 -122 103 1 119 3 195 24 25 7 50 13 55 14 6 1 15 4 20 7 17 10
90 33 98 31 4 -1 7 2 7 8 0 6 3 9 8 8 4 -1 36 13 72 32 36 19 68 33 73 32 4
-1 7 2 7 8 0 5 5 10 11 10 6 0 34 16 63 35 29 19 58 35 65 35 6 0 11 4 11 9 0
5 14 14 30 21 17 7 30 17 30 22 0 5 5 6 10 3 6 -3 10 -3 10 2 0 4 17 19 38 33
79 53 306 271 369 355 21 28 44 56 50 63 7 7 13 17 13 22 0 5 6 15 13 22 6 7
21 29 31 48 11 19 22 37 26 40 12 10 53 107 79 188 22 69 27 99 25 175 -3 101
-5 115 -28 169 -23 55 -73 106 -125 130 -63 29 -200 28 -286 -2 -33 -11 -64
-22 -70 -23 -41 -11 -161 -81 -182 -107 -7 -8 -13 -12 -13 -7 0 4 -10 -2 -22
-13 -32 -29 -46 -41 -103 -85 -105 -82 -285 -282 -291 -322 -4 -23 37 -14 64
15 15 15 63 66 107 112 75 79 159 156 209 189 12 8 23 18 26 21 3 4 35 26 73
50 37 24 67 48 67 53 0 6 3 8 6 5 3 -4 35 9 72 27 36 19 70 31 74 29 4 -3 8
-1 8 4 0 5 6 9 13 10 72 5 116 10 126 16 6 4 11 3 11 -1 0 -5 11 -10 26 -11
14 -1 35 -7 47 -14 12 -7 25 -11 30 -10 4 1 7 -2 7 -8 0 -5 10 -19 23 -30 12
-12 22 -24 23 -28 0 -4 9 -25 19 -47 23 -52 27 -123 8 -188 -8 -29 -15 -58
-15 -64 -1 -7 -5 -13 -10 -13 -4 0 -8 -5 -8 -11 0 -27 -100 -206 -147 -264 -5
-5 -26 -35 -47 -65 -42 -59 -314 -340 -329 -340 -5 0 -19 -9 -31 -20 -48 -45
-82 -70 -93 -70 -7 0 -13 -4 -13 -9 0 -7 -118 -79 -198 -120 -15 -8 -28 -18
-30 -23 -2 -4 -9 -8 -17 -8 -7 0 -34 -9 -61 -21 -81 -34 -88 -36 -129 -48 -51
-14 -131 -32 -170 -37 -48 -7 -145 -10 -145 -4 0 3 -10 6 -22 6 -123 9 -247
135 -250 255 -3 88 29 201 98 344 35 74 48 98 100 180 10 17 19 32 19 35 0 3
12 23 26 45 14 22 33 54 42 70 10 17 42 64 72 105 30 41 58 81 62 89 3 8 14
22 22 31 9 9 25 30 36 46 11 15 28 36 38 46 9 10 17 20 17 23 0 7 129 184 147
203 7 7 13 17 13 21 0 4 17 25 38 47 27 27 57 45 98 58 102 32 169 58 324 128
88 39 228 114 240 129 3 3 27 19 53 35 27 16 59 36 72 44 12 8 37 24 54 35 17
10 31 23 31 28 0 4 5 5 10 2 6 -3 10 -1 10 5 0 6 11 15 25 20 14 5 25 15 25
21 0 7 3 10 6 6 4 -3 12 -1 18 6 7 7 30 26 51 42 90 70 278 241 380 346 131
136 207 219 198 219 -4 0 2 6 13 14 17 13 20 12 27 -12 5 -15 22 -63 38 -107z"/>
  </g>
</svg>
