<svg width="200" height="145" viewBox="0 0 200 145" fill="none" xmlns="http://www.w3.org/2000/svg">
<path d="M88.4615 15.2632V99.2105C88.4488 111.351 83.5821 122.99 74.9293 131.575C66.2766 140.159 54.5445 144.987 42.3077 145C40.2676 145 38.311 144.196 36.8684 142.765C35.4258 141.334 34.6154 139.392 34.6154 137.368C34.6154 135.344 35.4258 133.403 36.8684 131.972C38.311 130.541 40.2676 129.737 42.3077 129.737C50.4682 129.737 58.2945 126.521 64.0648 120.796C69.8352 115.071 73.0769 107.307 73.0769 99.2105V91.5789H15.3846C11.3044 91.5789 7.39122 89.9709 4.50605 87.1085C1.62087 84.2461 0 80.3638 0 76.3158V15.2632C0 11.2151 1.62087 7.33287 4.50605 4.47047C7.39122 1.60808 11.3044 0 15.3846 0H73.0769C77.1572 0 81.0703 1.60808 83.9555 4.47047C86.8407 7.33287 88.4615 11.2151 88.4615 15.2632ZM184.615 0H126.923C122.843 0 118.93 1.60808 116.045 4.47047C113.159 7.33287 111.538 11.2151 111.538 15.2632V76.3158C111.538 80.3638 113.159 84.2461 116.045 87.1085C118.93 89.9709 122.843 91.5789 126.923 91.5789H184.615V99.2105C184.615 107.307 181.374 115.071 175.603 120.796C169.833 126.521 162.007 129.737 153.846 129.737C151.806 129.737 149.849 130.541 148.407 131.972C146.964 133.403 146.154 135.344 146.154 137.368C146.154 139.392 146.964 141.334 148.407 142.765C149.849 144.196 151.806 145 153.846 145C166.083 144.987 177.815 140.159 186.468 131.575C195.121 122.99 199.987 111.351 200 99.2105V15.2632C200 11.2151 198.379 7.33287 195.494 4.47047C192.609 1.60808 188.696 0 184.615 0Z" fill="url(#paint0_linear_1373_3)"/>
<defs>
<linearGradient id="paint0_linear_1373_3" x1="100" y1="0" x2="100" y2="145" gradientUnits="userSpaceOnUse">
<stop stop-color="#5847EB"/>
<stop offset="0.9" stop-color="#5847EB" stop-opacity="0.4"/>
</linearGradient>
</defs>
</svg>
